FFmpeg version SVN-r25716, Copyright (c) 2000-2010 the FFmpeg developers  built on Nov 10 2010 12:23:18 with gcc 4.1.2 20080704 (Red Hat 4.1.2-48)  configuration: --enable-libmp3lame --enable-shared --disable-mmx --arch=x86_64  libavutil     50.33. 0 / 50.33. 0  libavcore      0.12. 1 /  0.12. 1  libavcodec    52.94. 4 / 52.94. 4  libavformat   52.84. 0 / 52.84. 0  libavdevice   52. 2. 2 / 52. 2. 2  libavfilter    1.59. 0 /  1.59. 0  libswscale     0.12. 0 /  0.12. 0Input #0, mov,mp4,m4a,3gp,3g2,mj2, from '/RAID10/data/converted_video_files/12298.mov':  Metadata:    major_brand     : qt      minor_version   : 537199360    compatible_brands: qt    Duration: 00:00:03.43, start: 0.000000, bitrate: 35224 kb/s    Stream #0.0(eng): Video: rawvideo, argb, 130x285, 35222 kb/s, 29.71 fps, 30 tbr, 30 tbn, 30 tbc[buffer @ 0x1e9423c0] w:130 h:285 pixfmt:argb[ffsink @ 0x1e93f770] auto-inserting filter 'auto-inserted scaler 0' between the filter 'src' and the filter 'out'[scale @ 0x1e93fa90] w:130 h:285 fmt:argb -> w:130 h:285 fmt:yuv420p flags:0x4Output #0, flv, to '/RAID10/data/converted_video_files/12298.flv':  Metadata:    encoder         : Lavf52.84.0    Stream #0.0(eng): Video: flv, yuv420p, 130x285, q=2-31, 600 kb/s, 1k tbn, 24 tbcStream mapping:  Stream #0.0 -> #0.0Press [q] to stop encodingframe=   82 fps=  0 q=9.5 Lsize=     407kB time=3.42 bitrate= 976.0kbits/s dup=0 drop=20    video:406kB audio:0kB global headers:0kB muxing overhead 0.366448%